ffmpeg started on 2025-05-28 at 11:28:15
Report written to "D:\Convert\FFMetrics\reports\psnr_report-6.txt"
Log level: 32
Command line:
ffmpeg -hide_banner -nostdin -i "G:\\\xc0\xed\xe8\xec\xe5\\\xce\xed\xe3\xee\xe8\xed\xe3\xe8\\!_36_\xce\xf1\xe5\xed\xfc_2024\\JamClub\\SAO\\\xc0\xeb\xfc\xf2\xe5\xf0\xed\xe0\xf2\xe8\xe2\xed\xe0\xff \xab\xcf\xf0\xe8\xe7\xf0\xe0\xf7\xed\xe0\xff \xef\xf3\xeb\xff\xbb\\\xd2\xc2-2\\JamClub_Sword_Art_Online_Alternative_Gun_Gale_Online_II_04_1080p_HEVC.mkv" -i "G:\\\xc0\xed\xe8\xec\xe5\\\xce\xed\xe3\xee\xe8\xed\xe3\xe8\\!_36_\xce\xf1\xe5\xed\xfc_2024\\JamClub\\SAO\\\xc0\xeb\xfc\xf2\xe5\xf0\xed\xe0\xf2\xe8\xe2\xed\xe0\xff \xab\xcf\xf0\xe8\xe7\xf0\xe0\xf7\xed\xe0\xff \xef\xf3\xeb\xff\xbb\\\xd2\xc2-2\\JamClub_Sword_Art_Online_Alternative_Gun_Gale_Online_II_04_1080p.mp4" -lavfi "[0:v]settb=AVTB,setpts=PTS-STARTPTS,format=pix_fmts=yuv420p10,fps=24000/1001,scale=1920:1080:flags=bicubic[main];[1:v]settb=AVTB,setpts=PTS-STARTPTS,format=pix_fmts=yuv420p,fps=24000/1001,scale=1920:1080:flags=bicubic[ref];[main][ref]psnr=eof_action=endall:stats_file='D\\:/Convert/FFMetrics/logs/psnr_logfile-6.txt'" -f null -
Input #0, matroska,webm, from 'G:\Аниме\Онгоинги\!_36_Осень_2024\JamClub\SAO\Альтернативная «Призрачная пуля»\ТВ-2\JamClub_Sword_Art_Online_Alternative_Gun_Gale_Online_II_04_1080p_HEVC.mkv':
  Metadata:
    COMPATIBLE_BRANDS: isomiso2avc1mp41
    MAJOR_BRAND     : isom
    MINOR_VERSION   : 512
    ENCODER         : Lavf61.7.100
  Duration: 00:24:02.35, start: -0.001000, bitrate: 1424 kb/s
  Stream #0:0: Video: hevc (Main 10), yuv420p10le(tv, bt709, progressive), 1920x1080 [SAR 1:1 DAR 16:9], 23.98 fps, 23.98 tbr, 1k tbn (default)
      Metadata:
        HANDLER_NAME    : VideoHandler
        VENDOR_ID       : [0][0][0][0]
        ENCODER         : Lavc61.19.100 libx265
        BPS             : 1226797
        DURATION        : 00:24:02.273708333
        NUMBER_OF_FRAMES: 34580
        NUMBER_OF_BYTES : 221172173
        _STATISTICS_WRITING_APP: mkvpropedit v66.0.0 ('Josie') 64-bit
        _STATISTICS_WRITING_DATE_UTC: 2025-05-27 15:40:38
        _STATISTICS_TAGS: BPS DURATION NUMBER_OF_FRAMES NUMBER_OF_BYTES
  Stream #0:1(eng): Audio: aac (LC), 48000 Hz, stereo, fltp (default)
      Metadata:
        HANDLER_NAME    : SoundHandler
        VENDOR_ID       : [0][0][0][0]
        ENCODER         : Lavc61.19.100 aac
        BPS             : 193946
        DURATION        : 00:24:02.307000000
        NUMBER_OF_FRAMES: 67609
        NUMBER_OF_BYTES : 34966223
        _STATISTICS_WRITING_APP: mkvpropedit v66.0.0 ('Josie') 64-bit
        _STATISTICS_WRITING_DATE_UTC: 2025-05-27 15:40:38
        _STATISTICS_TAGS: BPS DURATION NUMBER_OF_FRAMES NUMBER_OF_BYTES
Input #1, mov,mp4,m4a,3gp,3g2,mj2, from 'G:\Аниме\Онгоинги\!_36_Осень_2024\JamClub\SAO\Альтернативная «Призрачная пуля»\ТВ-2\JamClub_Sword_Art_Online_Alternative_Gun_Gale_Online_II_04_1080p.mp4':
  Metadata:
    major_brand     : isom
    minor_version   : 512
    compatible_brands: isomiso2avc1mp41
    encoder         : Lavf60.16.100
  Duration: 00:24:02.33, start: 0.000000, bitrate: 4884 kb/s
  Stream #1:0[0x1](und): Video: h264 (High) (avc1 / 0x31637661), yuv420p(progressive), 1920x1080 [SAR 1:1 DAR 16:9], 4687 kb/s, 23.98 fps, 23.98 tbr, 90k tbn (default)
      Metadata:
        handler_name    : VideoHandler
        vendor_id       : [0][0][0][0]
  Stream #1:1[0x2](eng): Audio: aac (LC) (mp4a / 0x6134706D), 48000 Hz, stereo, fltp, 191 kb/s (default)
      Metadata:
        handler_name    : SoundHandler
        vendor_id       : [0][0][0][0]
Stream mapping:
  Stream #0:0 (hevc) -> settb:default
  Stream #1:0 (h264) -> settb:default
  psnr:default -> Stream #0:0 (wrapped_avframe)
  Stream #0:1 -> #0:1 (aac (native) -> pcm_s16le (native))
Output #0, null, to 'pipe:':
  Metadata:
    COMPATIBLE_BRANDS: isomiso2avc1mp41
    MAJOR_BRAND     : isom
    MINOR_VERSION   : 512
    encoder         : Lavf61.7.100
  Stream #0:0: Video: wrapped_avframe, yuv420p10le(tv, bt709, progressive), 1920x1080 [SAR 1:1 DAR 16:9], q=2-31, 200 kb/s, 23.98 fps, 23.98 tbn
      Metadata:
        encoder         : Lavc61.19.100 wrapped_avframe
  Stream #0:1(eng): Audio: pcm_s16le, 48000 Hz, stereo, s16, 1536 kb/s (default)
      Metadata:
        HANDLER_NAME    : SoundHandler
        VENDOR_ID       : [0][0][0][0]
        _STATISTICS_TAGS: BPS DURATION NUMBER_OF_FRAMES NUMBER_OF_BYTES
        BPS             : 193946
        DURATION        : 00:24:02.307000000
        NUMBER_OF_FRAMES: 67609
        NUMBER_OF_BYTES : 34966223
        _STATISTICS_WRITING_APP: mkvpropedit v66.0.0 ('Josie') 64-bit
        _STATISTICS_WRITING_DATE_UTC: 2025-05-27 15:40:38
        encoder         : Lavc61.19.100 pcm_s16le
frame=  112 fps=0.0 q=-0.0 size=N/A time=00:00:04.67 bitrate=N/A speed=9.06x    frame=  269 fps=262 q=-0.0 size=N/A time=00:00:11.21 bitrate=N/A speed=10.9x    frame=  460 fps=299 q=-0.0 size=N/A time=00:00:19.18 bitrate=N/A speed=12.5x    frame=  690 fps=334 q=-0.0 size=N/A time=00:00:28.77 bitrate=N/A speed=13.9x    frame=  885 fps=344 q=-0.0 size=N/A time=00:00:36.91 bitrate=N/A speed=14.3x    frame= 1130 fps=367 q=-0.0 size=N/A time=00:00:47.13 bitrate=N/A speed=15.3x    frame= 1356 fps=376 q=-0.0 size=N/A time=00:00:56.55 bitrate=N/A speed=15.7x    frame= 1587 fps=385 q=-0.0 size=N/A time=00:01:06.19 bitrate=N/A speed=16.1x    frame= 1802 fps=388 q=-0.0 size=N/A time=00:01:15.15 bitrate=N/A speed=16.2x    frame= 2038 fps=395 q=-0.0 size=N/A time=00:01:25.00 bitrate=N/A speed=16.5x    frame= 2282 fps=402 q=-0.0 size=N/A time=00:01:35.17 bitrate=N/A speed=16.8x    frame= 2495 fps=404 q=-0.0 size=N/A time=00:01:44.06 bitrate=N/A speed=16.8x    frame= 2715 fps=405 q=-0.0 size=N/A time=00:01:53.23 bitrate=N/A speed=16.9x    frame= 2900 fps=402 q=-0.0 size=N/A time=00:02:00.95 bitrate=N/A speed=16.8x    frame= 3113 fps=403 q=-0.0 size=N/A time=00:02:09.83 bitrate=N/A speed=16.8x    frame= 3326 fps=403 q=-0.0 size=N/A time=00:02:18.72 bitrate=N/A speed=16.8x    frame= 3553 fps=405 q=-0.0 size=N/A time=00:02:28.18 bitrate=N/A speed=16.9x    frame= 3708 fps=400 q=-0.0 size=N/A time=00:02:34.65 bitrate=N/A speed=16.7x    frame= 3904 fps=398 q=-0.0 size=N/A time=00:02:42.82 bitrate=N/A speed=16.6x    frame= 4026 fps=391 q=-0.0 size=N/A time=00:02:47.91 bitrate=N/A speed=16.3x    frame= 4215 fps=389 q=-0.0 size=N/A time=00:02:55.80 bitrate=N/A speed=16.2x    frame= 4397 fps=388 q=-0.0 size=N/A time=00:03:03.39 bitrate=N/A speed=16.2x    frame= 4550 fps=384 q=-0.0 size=N/A time=00:03:09.77 bitrate=N/A speed=  16x    frame= 4714 fps=381 q=-0.0 size=N/A time=00:03:16.61 bitrate=N/A speed=15.9x    frame= 4960 fps=385 q=-0.0 size=N/A time=00:03:26.87 bitrate=N/A speed=16.1x    frame= 5148 fps=384 q=-0.0 size=N/A time=00:03:34.71 bitrate=N/A speed=  16x    frame= 5354 fps=385 q=-0.0 size=N/A time=00:03:43.30 bitrate=N/A speed=  16x    frame= 5588 fps=387 q=-0.0 size=N/A time=00:03:53.06 bitrate=N/A speed=16.2x    frame= 5745 fps=384 q=-0.0 size=N/A time=00:03:59.61 bitrate=N/A speed=  16x    frame= 5983 fps=387 q=-0.0 size=N/A time=00:04:09.54 bitrate=N/A speed=16.1x    frame= 6236 fps=390 q=-0.0 size=N/A time=00:04:20.09 bitrate=N/A speed=16.3x    frame= 6472 fps=392 q=-0.0 size=N/A time=00:04:29.93 bitrate=N/A speed=16.4x    frame= 6667 fps=392 q=-0.0 size=N/A time=00:04:38.06 bitrate=N/A speed=16.4x    frame= 6882 fps=393 q=-0.0 size=N/A time=00:04:47.03 bitrate=N/A speed=16.4x    frame= 7101 fps=394 q=-0.0 size=N/A time=00:04:56.17 bitrate=N/A speed=16.4x    frame= 7342 fps=396 q=-0.0 size=N/A time=00:05:06.22 bitrate=N/A speed=16.5x    frame= 7585 fps=398 q=-0.0 size=N/A time=00:05:16.35 bitrate=N/A speed=16.6x    frame= 7827 fps=399 q=-0.0 size=N/A time=00:05:26.45 bitrate=N/A speed=16.7x    frame= 8076 fps=402 q=-0.0 size=N/A time=00:05:36.83 bitrate=N/A speed=16.8x    frame= 8305 fps=403 q=-0.0 size=N/A time=00:05:46.38 bitrate=N/A speed=16.8x    frame= 8520 fps=403 q=-0.0 size=N/A time=00:05:55.35 bitrate=N/A speed=16.8x    frame= 8733 fps=403 q=-0.0 size=N/A time=00:06:04.23 bitrate=N/A speed=16.8x    frame= 8962 fps=404 q=-0.0 size=N/A time=00:06:13.79 bitrate=N/A speed=16.9x    frame= 9136 fps=403 q=-0.0 size=N/A time=00:06:21.04 bitrate=N/A speed=16.8x    frame= 9342 fps=403 q=-0.0 size=N/A time=00:06:29.63 bitrate=N/A speed=16.8x    frame= 9526 fps=402 q=-0.0 size=N/A time=00:06:37.31 bitrate=N/A speed=16.8x    frame= 9748 fps=402 q=-0.0 size=N/A time=00:06:46.57 bitrate=N/A speed=16.8x    frame=10003 fps=404 q=-0.0 size=N/A time=00:06:57.20 bitrate=N/A speed=16.9x    frame=10202 fps=404 q=-0.0 size=N/A time=00:07:05.50 bitrate=N/A speed=16.8x    frame=10405 fps=404 q=-0.0 size=N/A time=00:07:13.97 bitrate=N/A speed=16.8x    frame=10667 fps=406 q=-0.0 size=N/A time=00:07:24.90 bitrate=N/A speed=16.9x    frame=10921 fps=407 q=-0.0 size=N/A time=00:07:35.49 bitrate=N/A speed=  17x    frame=11122 fps=407 q=-0.0 size=N/A time=00:07:43.88 bitrate=N/A speed=  17x    frame=11349 fps=408 q=-0.0 size=N/A time=00:07:53.34 bitrate=N/A speed=  17x    frame=11547 fps=407 q=-0.0 size=N/A time=00:08:01.60 bitrate=N/A speed=  17x    frame=11759 fps=407 q=-0.0 size=N/A time=00:08:10.44 bitrate=N/A speed=  17x    frame=12000 fps=408 q=-0.0 size=N/A time=00:08:20.50 bitrate=N/A speed=  17x    frame=12217 fps=409 q=-0.0 size=N/A time=00:08:29.55 bitrate=N/A speed=  17x    frame=12481 fps=410 q=-0.0 size=N/A time=00:08:40.56 bitrate=N/A speed=17.1x    frame=12722 fps=411 q=-0.0 size=N/A time=00:08:50.61 bitrate=N/A speed=17.2x    frame=12990 fps=413 q=-0.0 size=N/A time=00:09:01.79 bitrate=N/A speed=17.2x    frame=13235 fps=414 q=-0.0 size=N/A time=00:09:12.00 bitrate=N/A speed=17.3x    frame=13456 fps=414 q=-0.0 size=N/A time=00:09:21.22 bitrate=N/A speed=17.3x    frame=13700 fps=415 q=-0.0 size=N/A time=00:09:31.40 bitrate=N/A speed=17.3x    frame=13934 fps=416 q=-0.0 size=N/A time=00:09:41.16 bitrate=N/A speed=17.3x    frame=14197 fps=417 q=-0.0 size=N/A time=00:09:52.13 bitrate=N/A speed=17.4x    frame=14438 fps=418 q=-0.0 size=N/A time=00:10:02.18 bitrate=N/A speed=17.4x    frame=14665 fps=418 q=-0.0 size=N/A time=00:10:11.65 bitrate=N/A speed=17.4x    frame=14888 fps=419 q=-0.0 size=N/A time=00:10:20.95 bitrate=N/A speed=17.5x    frame=15012 fps=416 q=-0.0 size=N/A time=00:10:26.12 bitrate=N/A speed=17.3x    frame=15196 fps=415 q=-0.0 size=N/A time=00:10:33.79 bitrate=N/A speed=17.3x    frame=15428 fps=416 q=-0.0 size=N/A time=00:10:43.47 bitrate=N/A speed=17.3x    frame=15690 fps=417 q=-0.0 size=N/A time=00:10:54.40 bitrate=N/A speed=17.4x    frame=15961 fps=418 q=-0.0 size=N/A time=00:11:05.70 bitrate=N/A speed=17.4x    frame=16183 fps=418 q=-0.0 size=N/A time=00:11:14.96 bitrate=N/A speed=17.5x    frame=16428 fps=419 q=-0.0 size=N/A time=00:11:25.18 bitrate=N/A speed=17.5x    frame=16693 fps=420 q=-0.0 size=N/A time=00:11:36.23 bitrate=N/A speed=17.5x    frame=16905 fps=420 q=-0.0 size=N/A time=00:11:45.07 bitrate=N/A speed=17.5x    frame=17138 fps=421 q=-0.0 size=N/A time=00:11:54.79 bitrate=N/A speed=17.5x    frame=17314 fps=420 q=-0.0 size=N/A time=00:12:02.13 bitrate=N/A speed=17.5x    frame=17540 fps=420 q=-0.0 size=N/A time=00:12:11.56 bitrate=N/A speed=17.5x    frame=17754 fps=420 q=-0.0 size=N/A time=00:12:20.48 bitrate=N/A speed=17.5x    frame=17985 fps=420 q=-0.0 size=N/A time=00:12:30.12 bitrate=N/A speed=17.5x    frame=18236 fps=421 q=-0.0 size=N/A time=00:12:40.59 bitrate=N/A speed=17.6x    frame=18481 fps=422 q=-0.0 size=N/A time=00:12:50.81 bitrate=N/A speed=17.6x    frame=18738 fps=422 q=-0.0 size=N/A time=00:13:01.53 bitrate=N/A speed=17.6x    frame=18926 fps=422 q=-0.0 size=N/A time=00:13:09.37 bitrate=N/A speed=17.6x    frame=19167 fps=422 q=-0.0 size=N/A time=00:13:19.42 bitrate=N/A speed=17.6x    frame=19424 fps=423 q=-0.0 size=N/A time=00:13:30.14 bitrate=N/A speed=17.7x    frame=19663 fps=424 q=-0.0 size=N/A time=00:13:40.11 bitrate=N/A speed=17.7x    frame=19898 fps=424 q=-0.0 size=N/A time=00:13:49.91 bitrate=N/A speed=17.7x    frame=20151 fps=425 q=-0.0 size=N/A time=00:14:00.46 bitrate=N/A speed=17.7x    frame=20396 fps=425 q=-0.0 size=N/A time=00:14:10.68 bitrate=N/A speed=17.7x    frame=20654 fps=426 q=-0.0 size=N/A time=00:14:21.44 bitrate=N/A speed=17.8x    frame=20908 fps=427 q=-0.0 size=N/A time=00:14:32.03 bitrate=N/A speed=17.8x    frame=21152 fps=427 q=-0.0 size=N/A time=00:14:42.21 bitrate=N/A speed=17.8x    frame=21412 fps=428 q=-0.0 size=N/A time=00:14:53.05 bitrate=N/A speed=17.9x    frame=21604 fps=427 q=-0.0 size=N/A time=00:15:01.06 bitrate=N/A speed=17.8x    frame=21800 fps=427 q=-0.0 size=N/A time=00:15:09.24 bitrate=N/A speed=17.8x    frame=22057 fps=428 q=-0.0 size=N/A time=00:15:19.96 bitrate=N/A speed=17.8x    frame=22236 fps=427 q=-0.0 size=N/A time=00:15:27.42 bitrate=N/A speed=17.8x    frame=22442 fps=427 q=-0.0 size=N/A time=00:15:36.01 bitrate=N/A speed=17.8x    frame=22662 fps=427 q=-0.0 size=N/A time=00:15:45.19 bitrate=N/A speed=17.8x    frame=22907 fps=427 q=-0.0 size=N/A time=00:15:55.41 bitrate=N/A speed=17.8x    frame=23162 fps=428 q=-0.0 size=N/A time=00:16:06.04 bitrate=N/A speed=17.8x    frame=23356 fps=427 q=-0.0 size=N/A time=00:16:14.13 bitrate=N/A speed=17.8x    frame=23553 fps=427 q=-0.0 size=N/A time=00:16:22.35 bitrate=N/A speed=17.8x    frame=23752 fps=426 q=-0.0 size=N/A time=00:16:30.65 bitrate=N/A speed=17.8x    frame=23984 fps=427 q=-0.0 size=N/A time=00:16:40.33 bitrate=N/A speed=17.8x    frame=24246 fps=427 q=-0.0 size=N/A time=00:16:51.26 bitrate=N/A speed=17.8x    frame=24499 fps=428 q=-0.0 size=N/A time=00:17:01.81 bitrate=N/A speed=17.8x    frame=24743 fps=428 q=-0.0 size=N/A time=00:17:11.98 bitrate=N/A speed=17.9x    frame=24990 fps=429 q=-0.0 size=N/A time=00:17:22.29 bitrate=N/A speed=17.9x    frame=25242 fps=429 q=-0.0 size=N/A time=00:17:32.80 bitrate=N/A speed=17.9x    frame=25479 fps=430 q=-0.0 size=N/A time=00:17:42.72 bitrate=N/A speed=17.9x    frame=25749 fps=430 q=-0.0 size=N/A time=00:17:53.94 bitrate=N/A speed=  18x    frame=26008 fps=431 q=-0.0 size=N/A time=00:18:04.75 bitrate=N/A speed=  18x    frame=26245 fps=431 q=-0.0 size=N/A time=00:18:14.63 bitrate=N/A speed=  18x    frame=26479 fps=431 q=-0.0 size=N/A time=00:18:24.39 bitrate=N/A speed=  18x    frame=26724 fps=432 q=-0.0 size=N/A time=00:18:34.61 bitrate=N/A speed=  18x    frame=26964 fps=432 q=-0.0 size=N/A time=00:18:44.62 bitrate=N/A speed=  18x    frame=27203 fps=432 q=-0.0 size=N/A time=00:18:54.59 bitrate=N/A speed=  18x    frame=27437 fps=433 q=-0.0 size=N/A time=00:19:04.35 bitrate=N/A speed=  18x    frame=27699 fps=433 q=-0.0 size=N/A time=00:19:15.27 bitrate=N/A speed=18.1x    frame=27952 fps=434 q=-0.0 size=N/A time=00:19:25.83 bitrate=N/A speed=18.1x    frame=28207 fps=434 q=-0.0 size=N/A time=00:19:36.46 bitrate=N/A speed=18.1x    frame=28445 fps=434 q=-0.0 size=N/A time=00:19:46.39 bitrate=N/A speed=18.1x    frame=28666 fps=434 q=-0.0 size=N/A time=00:19:55.61 bitrate=N/A speed=18.1x    frame=28897 fps=434 q=-0.0 size=N/A time=00:20:05.24 bitrate=N/A speed=18.1x    frame=29133 fps=435 q=-0.0 size=N/A time=00:20:15.08 bitrate=N/A speed=18.1x    frame=29354 fps=434 q=-0.0 size=N/A time=00:20:24.30 bitrate=N/A speed=18.1x    frame=29576 fps=434 q=-0.0 size=N/A time=00:20:33.56 bitrate=N/A speed=18.1x    frame=29827 fps=435 q=-0.0 size=N/A time=00:20:44.03 bitrate=N/A speed=18.1x    frame=30044 fps=435 q=-0.0 size=N/A time=00:20:53.08 bitrate=N/A speed=18.1x    frame=30266 fps=435 q=-0.0 size=N/A time=00:21:02.34 bitrate=N/A speed=18.1x    frame=30532 fps=435 q=-0.0 size=N/A time=00:21:13.43 bitrate=N/A speed=18.2x    frame=30799 fps=436 q=-0.0 size=N/A time=00:21:24.57 bitrate=N/A speed=18.2x    frame=31058 fps=436 q=-0.0 size=N/A time=00:21:35.37 bitrate=N/A speed=18.2x    frame=31309 fps=437 q=-0.0 size=N/A time=00:21:45.84 bitrate=N/A speed=18.2x    frame=31557 fps=437 q=-0.0 size=N/A time=00:21:56.18 bitrate=N/A speed=18.2x    frame=31807 fps=437 q=-0.0 size=N/A time=00:22:06.61 bitrate=N/A speed=18.2x    frame=32044 fps=438 q=-0.0 size=N/A time=00:22:16.50 bitrate=N/A speed=18.2x    frame=32297 fps=438 q=-0.0 size=N/A time=00:22:27.05 bitrate=N/A speed=18.3x    frame=32549 fps=438 q=-0.0 size=N/A time=00:22:37.56 bitrate=N/A speed=18.3x    frame=32782 fps=438 q=-0.0 size=N/A time=00:22:47.28 bitrate=N/A speed=18.3x    frame=32985 fps=438 q=-0.0 size=N/A time=00:22:55.74 bitrate=N/A speed=18.3x    frame=33151 fps=437 q=-0.0 size=N/A time=00:23:02.67 bitrate=N/A speed=18.2x    frame=33374 fps=437 q=-0.0 size=N/A time=00:23:11.97 bitrate=N/A speed=18.2x    frame=33626 fps=438 q=-0.0 size=N/A time=00:23:22.48 bitrate=N/A speed=18.3x    frame=33812 fps=437 q=-0.0 size=N/A time=00:23:30.24 bitrate=N/A speed=18.2x    frame=34030 fps=437 q=-0.0 size=N/A time=00:23:39.33 bitrate=N/A speed=18.2x    frame=34268 fps=437 q=-0.0 size=N/A time=00:23:49.26 bitrate=N/A speed=18.2x    frame=34477 fps=437 q=-0.0 size=N/A time=00:23:57.97 bitrate=N/A speed=18.2x    [Parsed_psnr_10 @ 0000029cce194bc0] PSNR y:47.543291 u:49.999585 v:49.605704 average:48.173144 min:37.009606 max:inf
[out#0/null @ 0000029ccd190ec0] video:14859KiB audio:270436KiB subtitle:0KiB other streams:0KiB global headers:0KiB muxing overhead: unknown
frame=34580 fps=437 q=-0.0 Lsize=N/A time=00:24:02.27 bitrate=N/A speed=18.2x    
